<svg id="SvgjsSvg1108" width="288" height="288" xmlns="http://www.w3.org/2000/svg" version="1.1" xmlnsXlink="http://www.w3.org/1999/xlink" xmlnsSvgjs="http://svgjs.com/svgjs"><defs id="SvgjsDefs1109"></defs><g id="SvgjsG1110"><svg xmlns="http://www.w3.org/2000/svg" enable-background="new 0 0 512 512" viewBox="0 0 512 512" width="288" height="288"><circle cx="104.727" cy="69.818" r="11.636" fill="#037bfd" class="color000 svgShape"></circle><circle cx="151.273" cy="69.818" r="11.636" fill="#037bfd" class="color000 svgShape"></circle><path d="M395.636 465.455h-71.959c-4.817-13.51-17.617-23.273-32.768-23.273h-23.273v-34.909c0-6.423-5.213-11.636-11.636-11.636s-11.636 5.213-11.636 11.636v34.909h-23.273c-15.151 0-27.951 9.763-32.768 23.273h-71.959c-6.423 0-11.636 5.213-11.636 11.636 0 6.423 5.213 11.636 11.636 11.636h71.959C193.14 502.237 205.94 512 221.091 512h69.818c15.151 0 27.951-9.763 32.768-23.273h71.959c6.435 0 11.636-5.213 11.636-11.636C407.273 470.668 402.071 465.455 395.636 465.455zM290.909 488.727h-69.818c-6.412 0-11.636-5.225-11.636-11.636s5.225-11.636 11.636-11.636h69.818c6.412 0 11.636 5.225 11.636 11.636S297.321 488.727 290.909 488.727zM244.364 58.182c-6.423 0-11.636 5.213-11.636 11.636s5.213 11.636 11.636 11.636h162.909c6.435 0 11.636-5.213 11.636-11.636s-5.201-11.636-11.636-11.636H244.364z" fill="#037bfd" class="color000 svgShape"></path><circle cx="104.727" cy="302.545" r="11.636" fill="#037bfd" class="color000 svgShape"></circle><circle cx="151.273" cy="302.545" r="11.636" fill="#037bfd" class="color000 svgShape"></circle><path d="M244.364,290.909c-6.423,0-11.636,5.213-11.636,11.636s5.213,11.636,11.636,11.636h162.909
				c6.435,0,11.636-5.213,11.636-11.636s-5.201-11.636-11.636-11.636H244.364z" fill="#037bfd" class="color000 svgShape"></path><circle cx="104.727" cy="186.182" r="11.636" fill="#037bfd" class="color000 svgShape"></circle><circle cx="151.273" cy="186.182" r="11.636" fill="#037bfd" class="color000 svgShape"></circle><path d="M407.273,197.818c6.435,0,11.636-5.213,11.636-11.636s-5.201-11.636-11.636-11.636H244.364
				c-6.423,0-11.636,5.213-11.636,11.636s5.213,11.636,11.636,11.636H407.273z" fill="#037bfd" class="color000 svgShape"></path><path d="M465.455,93.091c6.435,0,11.636-5.213,11.636-11.636V34.909C477.091,15.663,461.428,0,442.182,0H69.818
				C50.572,0,34.909,15.663,34.909,34.909V128v0.012v69.807c0,6.423,5.213,11.636,11.636,11.636s11.636-5.213,11.636-11.636v-58.17
				l395.636-0.012v93.091l-407.273,0.012c-6.423,0-11.636,5.213-11.636,11.636v93.079c0,19.247,15.663,34.909,34.909,34.909
				l372.364-0.012c19.247,0,34.909-15.663,34.909-34.909v-46.534c0-6.423-5.201-11.636-11.636-11.636
				c-6.435,0-11.636,5.213-11.636,11.636v46.534c0,6.412-5.213,11.636-11.636,11.636l-372.364,0.012
				c-6.412,0-11.636-5.225-11.636-11.636v-81.443L465.455,256c6.435,0,11.636-5.213,11.636-11.636V128
				c0-3.084-1.222-6.051-3.409-8.227c-2.188-2.176-5.132-3.409-8.227-3.409l-407.273,0.012V34.909
				c0-6.412,5.225-11.636,11.636-11.636h372.364c6.423,0,11.636,5.225,11.636,11.636v46.545
				C453.818,87.878,459.02,93.091,465.455,93.091z" fill="#037bfd" className="color000 svgShape"></path></svg></g></svg>