<?xml version="1.0" encoding="UTF-8" standalone="no"?>
<!DOCTYPE svg PUBLIC "-//W3C//DTD SVG 1.1//EN" "http://www.w3.org/Graphics/SVG/1.1/DTD/svg11.dtd">
<svg xmlns="http://www.w3.org/2000/svg" xmlns:xlink="http://www.w3.org/1999/xlink" version="1.1" width="595.2756pt" height="841.8898pt" viewBox="0 0 595.2756 841.8898">
<g enable-background="new">
<g id="Layer-1" data-name="Слой 1">
<path transform="matrix(1,0,0,-1,0,841.8898)" d="M 270.1854 513.303 C 299.6827 516.136 331.9044 504.0332 351.6111 482.4714 C 366.9661 465.6711 376.7182 446.2415 378.8969 422.3064 C 384.2167 363.8636 340.0149 317.4177 287.7182 312.8593 C 229.0073 307.7416 183.0739 351.7021 178.4327 404.6278 C 177.0574 420.3108 179.6026 434.8259 184.4385 448.2918 C 196.9021 482.9961 230.0403 509.4473 270.1854 513.303 Z M 106.3967 628.5022 C 108.9383 627.8825 130.6466 605.3485 131.512 603.9629 C 128.6816 598.0606 113.1917 576.1372 112.1837 572.8317 L 142.2159 542.9322 C 141.0301 537.9647 126.6542 515.6634 125.0875 510.546 C 129.4087 506.7505 133.3984 502.0668 137.586 497.8627 L 175.3798 460.0403 L 169.075 441.7696 L 108.2117 441.8351 C 109.9225 436.8118 109.9959 434.6974 108.2157 429.7334 L 166.4864 429.7246 L 165.5683 419.1109 L 72.7163 419.1038 C 74.668 414.7696 74.6674 411.2096 72.5927 406.8519 L 165.4523 406.7512 L 167.18 392.4136 L 53.0433 392.6526 C 54.8595 387.256 54.6106 385.2941 53.0283 380.1404 L 170.1493 380.3777 C 175.0533 365.2466 182.444 351.2305 190.855 341.5847 L 197.9813 333.6642 C 204.7306 326.607 214.3244 319.235 223.1541 314.2624 L 190.4944 281.8488 C 180.1877 287.2945 169.7922 293.2693 159.1676 298.9777 L 129.4637 269.1505 C 125.8206 270.4768 123.4553 273.0495 119.8548 274.7268 L 160.4061 315.3101 C 163.2084 314.5697 173.4205 308.1864 177.0131 306.2483 C 182.5333 303.2705 187.8469 299.7567 193.1845 297.3107 C 198.4025 301.4898 207.6134 312.5271 212.2251 315.9952 L 161.4807 366.7164 L 126.5312 365.9068 C 121.3705 365.8275 121.7344 364.7137 119.1209 362.0942 C 111.6102 354.5668 103.0615 346.7268 96.1671 339.0965 C 98.8645 337.4243 99.104 337.6826 101.3066 335.3054 C 102.1153 334.4326 102.6519 333.8368 103.2143 332.8965 C 104.019 331.5504 103.8515 331.1731 104.7373 330.2768 C 105.008 331.0101 125.6601 353.3927 128.7972 353.8868 C 131.0267 354.238 135.8634 354.0614 138.3769 354.1218 C 141.126 354.1881 154.9505 354.8404 156.4659 354.4146 C 157.5417 354.1124 193.8535 318.1462 195.0137 315.7027 C 193.3838 314.5419 193.1539 313.7125 191.0319 312.4171 C 185.5242 314.4923 162.557 329.0581 158.1746 330.4162 L 109.3632 281.7323 C 105.9032 283.1647 100.7742 287.9286 97.3318 288.7174 C 95.5984 286.331 91.7362 282.9178 89.4064 280.5883 C 86.6784 277.8602 84.344 275.5256 81.616 272.7975 C 79.2935 270.4751 67.5839 257.8754 65.4384 257.495 C 67.3756 255.996 69.4582 255.7261 71.3761 253.8079 C 73.2943 251.8897 73.5642 249.8074 75.0631 247.8702 C 75.3803 250.2675 79.2731 253.0845 80.8982 254.7096 C 85.0068 258.8182 96.9157 271.2623 99.6917 273.2893 C 107.8106 268.9435 123.5971 257.3371 130.8583 253.7898 C 136.3751 258.6325 158.7756 282.4894 161.5037 283.9045 L 192.6904 266.8544 L 234.3112 308.6124 L 248.1194 304.0821 L 247.9972 270.6795 C 253.0953 272.6683 255.2323 272.6683 260.3307 270.6795 L 260.1958 301.2177 L 270.7696 299.8542 L 270.538 212.1452 C 275.1758 214.052 278.1547 214.0237 283.1465 212.3033 C 282.2474 216.5168 282.8404 293.3178 282.848 299.7136 L 297.2353 301.2554 C 297.8719 298.1115 297.8289 249.7363 297.1786 246.6901 C 301.3554 248.4224 305.5842 248.7118 309.5532 246.4954 L 309.5532 303.078 C 309.93 304.6946 313.7136 305.3239 315.1159 305.7902 C 335.7916 312.6643 346.3665 323.2043 350.2704 324.6415 L 390.1867 285.0211 L 388.7402 281.5872 C 394.3772 281.0693 396.8045 278.9277 399.5084 276.1186 L 404.7812 287.0116 L 358.8786 332.9855 C 360.6146 334.5386 361.7816 336.2683 363.4722 338.0423 C 373.5147 348.5809 382.4683 364.9779 386.8387 379.1426 C 394.0384 402.4772 393.027 420.2756 387.8277 443.9869 L 436.5048 443.8565 C 437.7223 438.1934 439.8902 431.951 441.5221 426.2355 C 442.3833 423.2186 443.2609 420.4307 444.1005 417.5232 C 444.8463 414.9405 445.7149 409.7546 447.3213 409.3163 C 456.4553 409.3163 465.5891 409.3163 474.7235 409.3163 C 491.203 409.3163 488.6138 412.1022 491.1687 398.6498 L 433.8037 398.6546 L 423.7138 434.6853 L 396.6993 434.6853 C 396.4221 421.0004 396.6695 407.0568 396.6695 393.3437 C 396.6695 389.6515 395.8807 365.4247 397.2013 363.13 L 418.322 342.8481 C 425.8658 336.2323 421.0903 336.3111 432.2769 336.3197 C 439.0186 336.3248 458.7565 336.7485 462.8608 336.0824 C 461.1317 341.5955 460.9312 343.0213 462.8066 348.5945 C 460.2855 348.1679 433.014 347.9845 430.7567 348.4094 C 428.908 348.7578 423.6837 354.1161 421.9838 355.6599 C 420.4993 357.008 419.5474 358.3942 418.0538 359.7738 C 408.8761 368.2505 408.6799 365.5752 408.7057 374.5378 L 408.7057 422.5785 L 414.6891 422.6278 C 415.3706 418.858 423.7095 388.9826 425.0237 386.5796 L 492.9914 386.5796 C 494.3149 386.2253 494.4237 384.5537 494.7194 383.2121 L 496.7118 374.4629 C 497.3573 373.2143 496.6294 373.9229 497.827 373.261 L 541.7762 373.0153 C 539.9751 378.1548 540.0437 380.2586 541.8573 385.5214 L 506.5506 385.3672 L 498.3644 421.3176 L 455.5276 421.4293 L 445.2403 456.0528 L 383.3994 456.175 C 381.9594 460.3632 378.2633 465.961 377.5071 469.1021 C 381.666 473.3691 385.5399 477.3368 389.6266 481.674 C 393.1889 485.4549 397.6798 490.6301 401.6214 493.8426 L 419.6812 512.3225 C 424.6778 517.5686 424.4031 513.7628 425.7082 511.1391 C 425.4891 514.5406 425.4267 516.8449 426.8716 519.6095 L 430.742 524.535 L 419.8031 529.8324 L 401.7385 510.9216 C 395.4617 504.5134 374.9919 484.9288 371.2958 479.6271 C 367.888 481.3189 364.5045 488.5906 360.7849 490.9068 C 362.0151 493.7315 367.7995 498.5762 370.2572 501.0335 L 396.5635 527.4105 C 397.9562 528.728 397.2779 528.6708 399.168 528.5319 C 397.8116 529.9016 396.1162 529.4024 393.6393 532.0137 C 391.8237 533.9276 391.18 534.4826 389.85 537.224 C 387.6616 536.0579 366.3442 514.1058 361.4958 509.2574 C 358.9047 506.6663 354.0969 502.3981 352.2277 499.7687 C 350.8946 500.349 344.6031 504.9448 343.7155 506.1753 L 375.5744 538.1623 C 379.8283 542.4163 405.813 567.7172 407.1404 570.2111 C 404.5479 571.462 403.5787 571.8209 401.6616 573.8791 C 399.6142 576.0768 399.6887 577.8729 398.3406 579.6513 C 398.5186 577.4363 398.6062 578.1739 397.2214 576.7058 L 332.9521 512.769 C 326.867 514.813 319.589 519.9809 309.1592 522.1514 L 309.134 581.6786 C 303.6288 579.6842 301.8285 579.8288 296.6117 581.8428 C 297.8957 578.1353 297.0998 532.806 297.1032 524.982 L 286.4529 526.1012 L 286.5328 617.2243 C 281.7765 614.8449 279.1576 615.3063 274.411 617.1783 L 274.1638 526.422 L 259.8038 524.838 L 259.9055 582.548 C 254.0809 580.8393 253.5758 580.6159 247.7741 582.531 L 247.7741 522.3626 C 246.1765 521.3951 234.589 517.8841 226.9151 513.8237 C 209.4797 504.5984 190.5554 488.5523 181.5605 471.244 C 179.1462 472.5371 164.1022 488.6495 160.7553 492.0174 C 158.9244 493.8599 156.9849 495.3419 155.1643 497.1725 C 153.3325 499.0141 151.9466 500.4964 150.1121 502.3295 C 147.0824 505.3575 143.0436 510.1707 140.0049 512.526 C 140.7249 514.967 146.9509 525.9353 148.5842 528.7439 C 150.7944 532.5443 155.8582 541.1027 157.1159 544.8943 L 127.5789 574.4117 C 128.2646 577.0463 131.72 581.0071 132.9072 583.5779 C 135.1681 582.2674 150.4012 566.4815 153.5876 563.2951 C 160.4021 556.4803 166.9093 549.8385 173.6923 543.1805 C 171.0139 537.7754 167.631 532.0942 164.5625 526.729 C 162.5567 523.2214 156.5779 513.4297 155.6337 510.4738 C 158.3649 507.5201 172.4743 492.7683 175.1238 491.5222 C 177.5015 494.7956 218.6544 534.9249 223.6538 540.1721 C 225.375 541.9783 225.0403 542.1223 224.9308 545.379 L 224.1782 574.9523 C 224.0303 581.1143 224.7469 580.5102 221.3759 583.8012 C 217.9545 587.141 198.8994 605.55 197.6893 607.9275 C 196.6153 606.9447 196.7031 606.2868 195.9284 604.9922 C 195.1143 603.6313 194.9406 603.7206 193.911 602.6961 C 191.7232 600.5186 191.4729 600.7827 189.0454 599.1749 C 195.1172 592.681 201.67 586.5052 208.0431 580.1397 C 213.5132 574.6765 212.1347 575.9875 212.3558 565.8151 C 212.4921 559.5528 212.7172 553.269 212.8533 546.9506 L 174.2919 508.6409 L 170.5116 512.6967 L 188.6621 545.2231 L 164.2048 569.6135 C 160.5382 573.2802 141.2555 591.7768 139.9932 594.2917 C 142.0101 598.163 144.7228 601.6958 146.8862 605.575 L 115.3655 637.1921 C 113.5845 634.2219 113.6996 633.996 111.5042 631.8998 C 109.47 629.9578 107.9711 629.9597 106.3967 628.5022 " fill="#00283b" fill-rule="evenodd"/>
<path transform="matrix(1,0,0,-1,0,841.8898)" d="M 462.8066 348.5945 C 460.9312 343.0213 461.1317 341.5955 462.8608 336.0824 C 465.3031 333.3249 469.0216 327.1992 477.9967 329.3717 C 491.7277 332.695 491.2172 352.1398 478.078 355.3243 C 468.9196 357.5441 465.2155 351.2373 462.8066 348.5945 " fill="#1980ff" fill-rule="evenodd"/>
<path transform="matrix(1,0,0,-1,0,841.8898)" d="M 296.6117 581.8428 C 301.8285 579.8288 303.6288 579.6842 309.134 581.6786 C 321.2909 588.0866 317.4812 606.7616 303.2955 606.9858 C 292.9195 607.1496 287.0623 596.5109 291.03 587.8922 C 292.6097 584.4609 294.0968 583.9413 296.6117 581.8428 " fill="#1980ff" fill-rule="evenodd"/>
<path transform="matrix(1,0,0,-1,0,841.8898)" d="M 53.0283 380.1404 C 54.6106 385.2941 54.8595 387.256 53.0433 392.6526 C 50.4927 395.4506 47.0259 401.5372 37.8023 399.3165 C 24.2674 396.0584 24.4987 376.7009 37.8533 373.4189 C 46.9709 371.1784 50.6137 377.3673 53.0283 380.1404 " fill="#1980ff" fill-rule="evenodd"/>
<path transform="matrix(1,0,0,-1,0,841.8898)" d="M 108.2157 429.7334 C 109.9959 434.6974 109.9225 436.8118 108.2117 441.8351 C 105.3207 446.0445 100.8734 450.5374 93.1479 448.7409 C 79.2196 445.502 79.7981 425.6901 93.0662 422.752 C 101.0531 420.9831 104.862 425.0758 108.2157 429.7334 " fill="#1980ff" fill-rule="evenodd"/>
<path transform="matrix(1,0,0,-1,0,841.8898)" d="M 398.3406 579.6513 C 399.6887 577.8729 399.6142 576.0768 401.6616 573.8791 C 403.5787 571.8209 404.5479 571.462 407.1404 570.2111 C 421.2425 565.8437 430.2933 582.224 421.4931 591.567 C 419.688 593.4835 418.3027 594.9218 414.9204 595.7578 C 408.9042 597.2448 402.7595 594.5363 399.9285 589.5873 C 397.9304 586.0942 398.3108 583.8659 398.3406 579.6513 " fill="#1980ff" fill-rule="evenodd"/>
<path transform="matrix(1,0,0,-1,0,841.8898)" d="M 274.411 617.1783 C 279.1576 615.3063 281.7765 614.8449 286.5328 617.2243 C 290.9818 618.8088 295.026 625.1749 293.4346 632.2448 C 292.2327 637.5824 287.1811 642.2394 280.7671 642.3585 C 266.4298 642.6252 261.9317 623.6688 274.411 617.1783 " fill="#1980ff" fill-rule="evenodd"/>
<path transform="matrix(1,0,0,-1,0,841.8898)" d="M 247.9972 270.6795 C 243.4448 267.9123 239.216 262.4939 241.2935 255.0078 C 242.7557 249.7399 247.9666 245.325 254.4375 245.4409 C 267.1047 245.668 273.4342 262.7141 260.3307 270.6795 C 255.2323 272.6683 253.0953 272.6683 247.9972 270.6795 " fill="#1980ff" fill-rule="evenodd"/>
<path transform="matrix(1,0,0,-1,0,841.8898)" d="M 541.8573 385.5214 C 540.0437 380.2586 539.9751 378.1548 541.7762 373.0153 C 544.0241 370.4834 544.4688 369.0584 547.6742 367.4103 C 556.1963 363.0285 566.7939 368.7194 567.1199 378.8399 C 567.4717 389.7584 555.6847 395.7661 547.4466 391.011 C 543.3055 388.6206 544.5351 388.5568 541.8573 385.5214 " fill="#1980ff" fill-rule="evenodd"/>
<path transform="matrix(1,0,0,-1,0,841.8898)" d="M 430.742 524.535 L 426.8716 519.6095 C 425.4267 516.8449 425.4891 514.5406 425.7082 511.1391 C 427.5621 499.0059 445.3002 495.7509 450.9462 507.941 C 453.7389 513.9703 451.4751 520.5869 447.3439 523.9165 C 441.4054 528.7028 436.8838 526.9306 430.742 524.535 " fill="#1980ff" fill-rule="evenodd"/>
<path transform="matrix(1,0,0,-1,0,841.8898)" d="M 297.1786 246.6901 C 294.3238 244.1713 293.5003 244.7714 291.534 240.7136 C 287.3908 232.1654 293.0352 221.3036 303.8485 221.4771 C 310.106 221.5777 315.1154 226.0655 316.4199 231.3969 C 318.1791 238.5865 314.1814 244.7028 309.5532 246.4954 C 305.5842 248.7118 301.3554 248.4224 297.1786 246.6901 " fill="#1980ff" fill-rule="evenodd"/>
<path transform="matrix(1,0,0,-1,0,841.8898)" d="M 72.5927 406.8519 C 74.6674 411.2096 74.668 414.7696 72.7163 419.1038 C 70.0988 423.6151 65.0296 428.0953 56.937 425.8709 C 51.8329 424.4681 47.3125 419.1443 47.484 412.6839 C 47.8568 398.6379 66.9359 395.2043 72.5927 406.8519 " fill="#1980ff" fill-rule="evenodd"/>
<path transform="matrix(1,0,0,-1,0,841.8898)" d="M 270.538 212.1452 C 265.7242 209.7774 262.0947 203.6523 264.0053 196.5716 C 265.4289 191.2966 270.5085 187.0191 276.9976 187.0345 C 288.1936 187.0605 297.0567 201.9586 283.1465 212.3033 C 278.1547 214.0237 275.1758 214.052 270.538 212.1452 " fill="#1980ff" fill-rule="evenodd"/>
<path transform="matrix(1,0,0,-1,0,841.8898)" d="M 247.7741 582.531 C 253.5758 580.6159 254.0809 580.8393 259.9055 582.548 C 274.9459 594.2324 263.9463 607.8019 253.8978 607.892 C 241.0911 608.0066 234.0921 591.0806 247.7741 582.531 " fill="#1980ff" fill-rule="evenodd"/>
<path transform="matrix(1,0,0,-1,0,841.8898)" d="M 399.5084 276.1186 C 396.8045 278.9277 394.3772 281.0693 388.7402 281.5872 C 373.8042 280.696 370.597 263.255 382.0351 256.5831 C 388.0644 253.0664 394.8596 255.3313 398.3338 259.1107 C 403.8866 265.1516 401.7872 270.7515 399.5084 276.1186 " fill="#1980ff" fill-rule="evenodd"/>
<path transform="matrix(1,0,0,-1,0,841.8898)" d="M 389.85 537.224 C 391.18 534.4826 391.8237 533.9276 393.6393 532.0137 C 396.1162 529.4024 397.8116 529.9016 399.168 528.5319 C 407.3562 528.4911 411.2821 529.9226 414.3016 535.4388 C 417.7397 541.7206 415.3255 548.3443 411.3369 551.846 C 401.9071 560.1243 386.8498 552.7777 389.85 537.224 " fill="#1980ff" fill-rule="evenodd"/>
<path transform="matrix(1,0,0,-1,0,841.8898)" d="M 189.0454 599.1749 C 191.4729 600.7827 191.7232 600.5186 193.911 602.6961 C 194.9406 603.7206 195.1143 603.6313 195.9284 604.9922 C 196.7031 606.2868 196.6153 606.9447 197.6893 607.9275 C 197.5139 616.0844 197.4121 619.9328 191.5929 623.3193 C 179.1828 630.5414 165.9115 616.5295 173.2127 604.9627 C 176.4836 599.7807 181.2073 597.964 189.0454 599.1749 " fill="#1980ff" fill-rule="evenodd"/>
<path transform="matrix(1,0,0,-1,0,841.8898)" d="M 104.7373 330.2768 C 103.8515 331.1731 104.019 331.5504 103.2143 332.8965 C 102.6519 333.8368 102.1153 334.4326 101.3066 335.3054 C 99.104 337.6826 98.8645 337.4243 96.1671 339.0965 C 88.2422 340.3049 83.5543 338.5046 80.2627 333.2418 C 72.9238 321.5086 86.5993 307.7563 98.5643 314.9382 C 103.9944 318.1972 104.8258 322.0911 104.7373 330.2768 " fill="#1980ff" fill-rule="evenodd"/>
<path transform="matrix(1,0,0,-1,0,841.8898)" d="M 106.3967 628.5022 C 107.9711 629.9597 109.47 629.9578 111.5042 631.8998 C 113.6996 633.996 113.5845 634.2219 115.3655 637.1921 C 118.3689 655.6428 100.8913 658.0709 93.4866 651.5385 C 89.9952 648.4586 87.6532 640.5571 91.0001 635.0151 C 94.5527 629.1326 98.1403 628.6467 106.3967 628.5022 " fill="#1980ff" fill-rule="evenodd"/>
<path transform="matrix(1,0,0,-1,0,841.8898)" d="M 75.0631 247.8702 C 73.5642 249.8074 73.2943 251.8897 71.3761 253.8079 C 69.4582 255.7261 67.3756 255.996 65.4384 257.495 C 45.5185 258.4502 46.5897 240.7167 52.435 234.8666 C 58.1888 229.1083 75.746 227.8519 75.0631 247.8702 " fill="#1980ff" fill-rule="evenodd"/>
<path transform="matrix(1,0,0,-1,0,841.8898)" d="M 256.754 441.2741 L 204.3343 441.2741 L 204.3343 388.3689 L 256.754 388.3689 L 256.754 399.0127 L 276.1688 399.0127 L 276.1688 392.4405 C 276.1688 384.8635 274.7667 379.6863 271.9355 376.8548 C 268.9421 374.0774 263.4412 372.6754 255.433 372.6754 L 205.6558 372.6754 C 197.6471 372.6754 192.1465 374.0774 189.1534 376.8548 C 186.3221 379.6863 184.9198 384.8635 184.9198 392.4136 L 184.9198 436.4201 C 184.9198 443.9432 186.3221 449.1207 189.1534 451.925 C 192.1192 454.7563 197.6202 456.1583 205.6558 456.1583 L 255.433 456.1583 C 263.4681 456.1583 268.969 454.7563 271.9355 451.925 C 274.7667 449.1207 276.1688 443.9432 276.1688 436.4201 L 276.1688 433.3326 L 256.754 433.3326 Z M 344.2575 441.2741 L 344.2575 433.3326 L 324.843 433.3326 L 324.843 441.2741 L 286.4988 441.2741 L 286.4988 456.1583 L 382.7633 456.1583 L 382.7633 441.2741 Z M 344.2575 399.0127 L 344.2575 372.6754 L 324.843 372.6754 L 324.843 399.0127 Z " fill="#00283b"/>
<g id="Layer-2" data-name="Corel_OTF">
</g>
<text fill="#00283b" xml:space="preserve" transform="matrix(1 0 -0 1 0 841.8898)" font-size="30.925" font-family="BankGothicRUSSMedium"><tspan y="-407.6283" x="202.5292 224.20763 247.0612 267.10063 293.26316 312.59129 336.8674 359.84468">&#x00d1;&#x00ef;&#x00e5;&#x00f6;&#x00f2;&#x00ee;&#x00f0;&#x00e3;</tspan></text>
</g>
</g>
</svg>
