<svg id="SvgjsSvg1032" width="288" height="288" xmlns="http://www.w3.org/2000/svg" version="1.1" xmlnsXlink="http://www.w3.org/1999/xlink" xmlnsSvgjs="http://svgjs.com/svgjs"><defs id="SvgjsDefs1033"></defs><g id="SvgjsG1034"><svg xmlns="http://www.w3.org/2000/svg" enable-background="new 0 0 300.412 300.412" viewBox="0 0 300.412 300.412" width="288" height="288"><path d="M271.262,50.041H29.15C13.153,50.041,0,63.01,0,79.191v142.03c0,16.01,13.022,29.15,29.15,29.15h242.112
			c16.137,0,29.15-13.152,29.15-29.15V79.191C300.412,62.995,287.246,50.041,271.262,50.041z M265.583,65.94l-115.377,74.791
			L34.831,65.94H265.583z M15.9,79.191c0-2.011,0.455-3.962,1.303-5.728l72.173,46.785L15.9,218.513V79.191z M271.262,234.471H29.15
			c-1.648,0-3.221-0.317-4.679-0.869l78.277-104.686l43.134,27.961c2.632,1.706,6.019,1.704,8.65,0l43.133-27.961l78.277,104.686
			C274.484,234.155,272.911,234.471,271.262,234.471z M284.512,218.513l-73.476-98.265l72.173-46.785
			c0.848,1.766,1.303,3.717,1.303,5.728V218.513z" fill="#287ce8" className="color000 svgShape"></path></svg></g></svg>