<svg id="SvgjsSvg1148" width="288" height="288" xmlns="http://www.w3.org/2000/svg" version="1.1" xmlnsXlink="http://www.w3.org/1999/xlink" xmlnsSvgjs="http://svgjs.com/svgjs"><defs id="SvgjsDefs1149"></defs><g id="SvgjsG1150"><svg xmlns="http://www.w3.org/2000/svg" enable-background="new 0 0 1000 1000" viewBox="0 0 1000 1000" width="288" height="288"><path d="M952.1,13H47.9C27,13,10,30,10,50.9v707.5c0,20.9,17,37.9,37.9,37.9h208.9v134.5c0,31,25.2,56.3,56.3,56.3h375.4c31,0,56.3-25.2,56.3-56.3V796.3h207.3c20.9,0,37.9-17,37.9-37.9V50.9C990,30,973,13,952.1,13z M712.3,930.8c0,13.1-10.7,23.8-23.8,23.8H313.1c-13.1,0-23.8-10.7-23.8-23.8V641.1c0-13.1,10.7-23.8,23.8-23.8h375.4c13.1,0,23.8,10.7,23.8,23.8V930.8z M382.3,584.8c4.9-61.1,56.1-109.3,118.5-109.3c62.3,0,113.6,48.2,118.5,109.3H382.3z M957.5,758.4c0,3-2.4,5.4-5.4,5.4H744.8V641.1c0-31-25.2-56.3-56.3-56.3h-36.7c-5-79-70.8-141.8-151-141.8c-80.2,0-146.1,62.8-151,141.8h-36.7c-31,0-56.3,25.2-56.3,56.3v122.7H47.9c-3,0-5.4-2.4-5.4-5.4V50.9c0-3,2.4-5.4,5.4-5.4h904.2c3,0,5.4,2.4,5.4,5.4V758.4z" fill="#037bfd" class="color000 svgShape"></path><path d="M290.2 138.1H144.5c-20.3 0-36.8 16.5-36.8 36.8v145.7c0 20.3 16.5 36.8 36.8 36.8h145.7c20.3 0 36.8-16.5 36.8-36.8V175C327 154.6 310.5 138.1 290.2 138.1zM294.5 320.7c0 2.4-1.9 4.3-4.3 4.3H144.5c-2.4 0-4.3-1.9-4.3-4.3V175c0-2.4 1.9-4.3 4.3-4.3h145.7c2.4 0 4.3 1.9 4.3 4.3V320.7zM572.9 138.1H427.1c-20.3 0-36.8 16.5-36.8 36.8v145.7c0 20.3 16.5 36.8 36.8 36.8h145.7c20.3 0 36.9-16.5 36.9-36.8V175C609.7 154.6 593.2 138.1 572.9 138.1zM577.2 320.7c0 2.4-1.9 4.3-4.3 4.3H427.1c-2.4 0-4.3-1.9-4.3-4.3V175c0-2.4 1.9-4.3 4.3-4.3h145.7c2.4 0 4.3 1.9 4.3 4.3V320.7zM855.5 138.1H709.8c-20.3 0-36.9 16.5-36.9 36.8v145.7c0 20.3 16.5 36.8 36.9 36.8h145.7c20.3 0 36.8-16.5 36.8-36.8V175C892.4 154.6 875.8 138.1 855.5 138.1zM859.9 320.7c0 2.4-1.9 4.3-4.3 4.3H709.8c-2.4 0-4.3-1.9-4.3-4.3V175c0-2.4 2-4.3 4.3-4.3h145.7c2.4 0 4.3 1.9 4.3 4.3V320.7zM624.3 738.1l-1.3 0c-12.8 0-23.2-10.4-23.2-23.2 0-2.8 1.3-6.8 2.1-8.7 4.9-11.2 1.1-24.9-8.9-31.8l-.3-.2c-.3-.2-.6-.4-1-.6l-32.8-18.2c-.3-.2-.6-.3-.9-.4l-.4-.2c-3.3-1.4-6.9-2.2-10.7-2.2-7.7 0-15 3-20 8.3-4.7 4.8-14.2 11.6-19 11.6-4.9 0-14.4-6.9-19.1-11.8-5.1-5.4-12.5-8.4-20.2-8.4-3.7 0-7.2.7-10.5 2.1l-.4.2c-.3.1-.7.3-1 .5l-33.9 18.6c-.3.2-.6.4-1 .6l-.3.2c-10.1 7-13.9 20.7-9 31.9.8 1.9 2.1 5.9 2.1 8.7 0 12.8-10.4 23.2-23.2 23.2h-1c-10.8-.2-19.7 8.3-22.1 21-.3 1.6-2.9 15.9-2.9 27.7 0 11.8 2.6 26.1 2.9 27.7 2.4 12.6 11.1 21 21.8 21 .1 0 .2 0 .3 0h1c12.8 0 23.2 10.4 23.2 23.2 0 2.8-1.3 6.8-2.1 8.7-4.9 11.2-1.1 24.8 8.9 31.9l.3.2c.3.2.6.4.9.6l32.2 18c.3.2.6.3.9.5l.3.2c3.3 1.5 6.9 2.2 10.7 2.2 7.7 0 15.3-3.2 20.3-8.7 4.5-4.9 14.5-12.3 19.4-12.3 5 0 14.8 7.3 19.5 12.5 5 5.5 12.6 8.8 20.4 8.8 0 0 0 0 0 0 3.7 0 7.2-.7 10.5-2.1l.3-.1c.3-.1.7-.3 1-.5l33.3-18.4c.3-.2.7-.4 1-.6l.3-.2c10-7 13.9-20.7 9-31.8-.6-1.3-2.1-5.6-2.1-8.7 0-12.8 10.4-23.2 23.2-23.2l1.3 0c10.7 0 19.5-8.4 21.8-21 .1-.6 2.9-15.5 2.9-27.7 0-11.9-2.6-26.1-2.9-27.7C643.7 746.6 634.9 738.1 624.3 738.1zM624.8 810.5c-.3 1.8-.9 2.9-1.3 3.4h-.6c-24.8 0-44.9 20.2-44.9 44.9 0 7.9 3.2 15.8 3.8 17.3 0 .1.1.1.1.2.8 1.7.1 4.1-1.4 5.3l-32.3 17.9c-.5.2-1.1.3-1.8.3-1.7 0-3.4-.7-4.4-1.7-1.8-2-18.4-19.6-35.6-19.6-17.4 0-34.6 18.5-35.4 19.3-.8.8-2.4 1.7-4.3 1.7-.7 0-1.3-.1-1.8-.3l-31.2-17.4c-1.5-1.2-2.2-3.5-1.4-5.3.2-.4 3.9-8.9 3.9-17.4 0-24.8-20.2-44.9-44.9-44.9h-.6c-.4-.5-.9-1.6-1.3-3.3-.1-.6-2.6-13.7-2.6-23.7 0-10 2.5-23.1 2.6-23.7.3-1.8.9-2.9 1.3-3.4h.6c24.8 0 44.9-20.2 44.9-44.9 0-8.3-3.4-16.3-3.9-17.4l0 0c-.8-1.7-.1-4.1 1.4-5.2l32.9-18.1c.5-.2 1.2-.3 1.9-.3 2 0 3.7.9 4.5 1.7 1.8 1.9 18.1 18.5 34.8 18.5 16.5 0 32.8-16.3 34.6-18.2.8-.8 2.5-1.7 4.4-1.7.7 0 1.4.1 1.9.3l31.8 17.7c1.5 1.1 2.2 3.5 1.4 5.3-.2.4-3.9 8.8-3.9 17.5 0 24.8 20.2 44.9 44.9 44.9h.6c.4.5.9 1.6 1.3 3.4 0 .1 2.6 13.6 2.6 23.7C627.3 795.3 625.5 806.8 624.8 810.5z" fill="#037bfd" class="color000 svgShape"></path><path d="M506.5,730.5c-31,0-56.2,25.2-56.2,56.2c0,31,25.2,56.2,56.2,56.2c31,0,56.2-25.2,56.2-56.2C562.8,755.7,537.5,730.5,506.5,730.5z M506.5,821.2c-19.1,0-34.6-15.5-34.6-34.6s15.5-34.6,34.6-34.6c19.1,0,34.6,15.5,34.6,34.6C541.1,805.7,525.6,821.2,506.5,821.2z" fill="#037bfd" class="color000 svgShape"></path></svg></g></svg>